<svg xmlns="http://www.w3.org/2000/svg" xmlns:xlink="http://www.w3.org/1999/xlink" width="500" zoomAndPan="magnify" viewBox="0 0 375 374.999991" height="500" preserveAspectRatio="xMidYMid meet" version="1.0"><defs><g/><clipPath id="ac26d41179"><path d="M 104 163 L 154.351562 163 L 154.351562 179 L 104 179 Z M 104 163 " clip-rule="nonzero"/></clipPath><clipPath id="9b8fb3de3f"><path d="M 26.101562 161.152344 L 154.351562 161.152344 L 154.351562 211.402344 L 26.101562 211.402344 Z M 26.101562 161.152344 " clip-rule="nonzero"/></clipPath><clipPath id="236afdad10"><path d="M 133 148 L 180 148 L 180 220 L 133 220 Z M 133 148 " clip-rule="nonzero"/></clipPath><clipPath id="b405141264"><path d="M 133.753906 156.304688 L 156.867188 148.007812 L 179.714844 211.652344 L 156.605469 219.949219 Z M 133.753906 156.304688 " clip-rule="nonzero"/></clipPath><clipPath id="62ef291ad0"><path d="M 133.753906 156.304688 L 156.867188 148.007812 L 179.6875 211.570312 L 156.574219 219.867188 Z M 133.753906 156.304688 " clip-rule="nonzero"/></clipPath></defs><g clip-path="url(#ac26d41179)"><path fill="#fffaf4" d="M 104.304688 178.367188 L 104.304688 163.507812 L 208.316406 163.507812 L 208.316406 178.367188 Z M 104.304688 178.367188 " fill-opacity="1" fill-rule="evenodd"/></g><path fill="#fffaf4" d="M 34.246094 186.859375 L 34.246094 178.371094 L 77.761719 178.371094 L 77.761719 186.859375 Z M 34.246094 186.859375 " fill-opacity="1" fill-rule="evenodd"/><g clip-path="url(#9b8fb3de3f)"><path fill="#fffaf4" d="M 26.5625 194.292969 C 26.855469 194.683594 27.574219 194.894531 28.878906 194.980469 C 29.53125 195.023438 30.1875 195.15625 30.328125 195.277344 C 30.488281 195.40625 31.632812 195.527344 33.265625 195.582031 C 35.53125 195.660156 36.046875 195.625 36.609375 195.355469 C 36.90625 195.21875 37.273438 195.140625 39.054688 195.128906 L 74.109375 196.398438 C 75.464844 196.304688 76.585938 196.628906 77.75 197.300781 C 78.632812 197.847656 79.699219 198.730469 81.691406 200.457031 C 88.972656 207.363281 98.308594 210.722656 108.164062 211.347656 L 206.566406 211.320312 C 209.117188 210.988281 213.09375 209.691406 213.953125 207.644531 L 213.953125 164.925781 C 213.097656 162.878906 209.117188 161.582031 206.566406 161.25 L 108.164062 161.222656 C 98.308594 161.847656 88.972656 165.207031 81.691406 172.109375 C 79.367188 174.125 78.300781 174.996094 77.320312 175.515625 C 76.398438 176.09375 75.417969 176.125 74.371094 176.164062 L 39.054688 177.4375 C 37.273438 177.429688 36.90625 177.351562 36.609375 177.210938 C 36.046875 176.945312 35.53125 176.910156 33.265625 176.988281 C 31.632812 177.042969 30.488281 177.164062 30.328125 177.292969 C 30.1875 177.414062 29.53125 177.546875 28.878906 177.589844 C 27.574219 177.675781 26.855469 177.886719 26.5625 178.273438 C 26.152344 183.597656 26.113281 188.972656 26.5625 194.292969 Z M 37.914062 180.917969 L 37.914062 179.988281 L 71.34375 179.988281 L 71.34375 180.917969 Z M 109.976562 170.515625 L 206.742188 170.515625 L 206.742188 171.628906 L 109.976562 171.628906 Z M 109.976562 166.613281 L 206.742188 166.613281 L 206.742188 169.027344 L 109.976562 169.027344 Z M 109.976562 166.613281 " fill-opacity="1" fill-rule="nonzero"/></g><g clip-path="url(#236afdad10)"><g clip-path="url(#b405141264)"><g clip-path="url(#62ef291ad0)"><path fill="#bb2700" d="M 133.753906 156.304688 L 156.867188 148.007812 L 179.683594 211.5625 L 156.574219 219.859375 Z M 133.753906 156.304688 " fill-opacity="1" fill-rule="nonzero"/></g></g></g><g fill="#fffaf4" fill-opacity="1"><g transform="translate(140.412578, 211.234208)"><g><path d="M 20.785156 0 L 28.300781 0 L 36.039062 -21.964844 L 43.707031 0 L 51.222656 0 L 67.511719 -46.507812 C 68.25 -48.644531 69.648438 -49.824219 72.007812 -49.75 L 72.007812 -50.414062 C 68.542969 -50.414062 63.238281 -50.414062 59.699219 -50.414062 L 59.699219 -49.75 C 61.984375 -49.824219 63.3125 -49.308594 64.046875 -47.171875 C 64.195312 -46.582031 64.417969 -46.066406 64.5625 -45.546875 C 65.007812 -44.296875 64.933594 -43.191406 64.492188 -41.9375 L 50.488281 -1.84375 L 34.933594 -46.285156 C 34.050781 -48.71875 35.378906 -49.824219 37.808594 -49.75 L 37.808594 -50.414062 L 22.921875 -50.414062 L 22.921875 -49.75 C 25.5 -49.824219 26.679688 -48.496094 27.492188 -46.285156 L 35.304688 -23.953125 L 27.566406 -1.84375 L 12.011719 -46.285156 C 11.128906 -48.71875 12.457031 -49.824219 14.886719 -49.75 L 14.886719 -50.414062 L 0 -50.414062 L 0 -49.75 C 2.578125 -49.824219 3.757812 -48.496094 4.570312 -46.285156 Z M 20.785156 0 "/></g></g></g><g fill="#fffaf4" fill-opacity="1"><g transform="translate(214.473272, 211.234208)"><g><path d="M 16.4375 -50.414062 L 0 -50.414062 L 0 -49.75 C 3.167969 -49.898438 4.71875 -47.761719 4.71875 -39.945312 L 4.71875 -10.390625 C 4.71875 -2.578125 3.167969 -0.515625 0 -0.664062 L 0 0 L 16.4375 0 L 16.4375 -0.664062 C 13.265625 -0.515625 11.71875 -2.578125 11.71875 -10.390625 L 11.71875 -39.945312 C 11.71875 -47.761719 13.265625 -49.898438 16.4375 -49.75 Z M 16.4375 -50.414062 "/></g></g></g><g fill="#fffaf4" fill-opacity="1"><g transform="translate(233.043711, 211.234208)"><g><path d="M 39.945312 -39.945312 C 39.945312 -47.761719 41.496094 -49.898438 44.738281 -49.75 L 44.738281 -50.414062 L 33.902344 -50.414062 L 33.902344 -49.75 C 37.148438 -49.898438 38.695312 -47.761719 38.695312 -39.945312 L 38.695312 -15.476562 C 32.722656 -27.933594 21.742188 -40.019531 10.90625 -50.414062 L 0 -50.414062 L 0 -49.75 C 3.167969 -49.898438 4.71875 -47.761719 4.71875 -39.945312 L 4.71875 -10.390625 C 4.71875 -2.578125 3.167969 -0.515625 0 -0.664062 L 0 0 L 10.761719 0 L 10.761719 -0.664062 C 7.589844 -0.515625 6.042969 -2.578125 6.042969 -10.390625 L 6.042969 -46.210938 C 19.382812 -33.609375 32.796875 -18.058594 37.589844 0 L 39.945312 0 Z M 39.945312 -39.945312 "/></g></g></g><g fill="#fffaf4" fill-opacity="1"><g transform="translate(279.911966, 211.234208)"><g><path d="M 0 0 L 39.0625 0 L 43.265625 -13.265625 L 42.675781 -13.265625 C 39.945312 -6.484375 31.914062 -1.328125 24.691406 -1.328125 L 11.71875 -1.328125 L 11.71875 -21.449219 C 14.519531 -25.355469 18.425781 -23.363281 22.039062 -22.183594 C 28.523438 -19.972656 32.945312 -21.59375 35.453125 -28.890625 L 34.863281 -29.1875 C 32.0625 -24.910156 28.007812 -26.976562 24.394531 -28.226562 C 18.5 -30.21875 14.296875 -29.113281 11.71875 -23.511719 L 11.71875 -49.085938 L 25.132812 -49.085938 C 31.101562 -49.085938 38.105469 -44.960938 40.390625 -39.285156 L 41.054688 -39.285156 L 37.957031 -50.414062 L 0 -50.414062 L 0 -49.75 C 3.167969 -49.898438 4.71875 -47.761719 4.71875 -39.945312 L 4.71875 -10.390625 C 4.71875 -2.578125 3.167969 -0.515625 0 -0.664062 Z M 0 0 "/></g></g></g><g fill="#bb2700" fill-opacity="1"><g transform="translate(130.814157, 204.357542)"><g><path d="M 0 -25.355469 L -20.769531 -34.089844 C -23.707031 -35.378906 -26.886719 -34.695312 -28.09375 -31.59375 C -29.382812 -28.335938 -27.488281 -24.996094 -23.546875 -23.425781 L -17.871094 -20.96875 L -28.457031 -16.582031 L -28.457031 -13.203125 L -13.84375 -19.277344 L -4.023438 -15.171875 L -28.457031 -4.910156 L -28.457031 -1.410156 L 0 -13.441406 L 0 -13.804688 L -13.484375 -19.398438 L 0 -25.074219 Z M -17.425781 -21.210938 L -23.546875 -23.707031 C -26.726562 -25.074219 -29.140625 -28.011719 -27.851562 -31.515625 C -26.683594 -34.492188 -23.546875 -35.015625 -20.769531 -33.890625 L -4.023438 -26.804688 Z M -17.425781 -21.210938 "/></g></g></g></svg>